<?xml version="1.0" encoding="UTF-8" standalone="no"?>
<!-- Created with Inkscape (http://www.inkscape.org/) -->

<svg
   xmlns:dc="http://purl.org/dc/elements/1.1/"
   xmlns:cc="http://creativecommons.org/ns#"
   xmlns:rdf="http://www.w3.org/1999/02/22-rdf-syntax-ns#"
   xmlns:svg="http://www.w3.org/2000/svg"
   xmlns="http://www.w3.org/2000/svg"
   xmlns:xlink="http://www.w3.org/1999/xlink"
   xmlns:sodipodi="http://sodipodi.sourceforge.net/DTD/sodipodi-0.dtd"
   xmlns:inkscape="http://www.inkscape.org/namespaces/inkscape"
   width="800"
   height="306.03296"
   id="svg2"
   sodipodi:version="0.32"
   inkscape:version="0.48.2 r9819"
   sodipodi:docname="Pointing-left.svg"
   inkscape:output_extension="org.inkscape.output.svg.inkscape"
   version="1.0">
  <sodipodi:namedview
     id="base"
     pagecolor="#ffffff"
     bordercolor="#666666"
     borderopacity="1.0"
     gridtolerance="10000"
     guidetolerance="10"
     objecttolerance="10"
     inkscape:pageopacity="0.0"
     inkscape:pageshadow="2"
     inkscape:zoom="1.979899"
     inkscape:cx="370.29649"
     inkscape:cy="147.16843"
     inkscape:document-units="px"
     inkscape:current-layer="layer1"
     showgrid="false"
     inkscape:window-width="1918"
     inkscape:window-height="1059"
     inkscape:window-x="1280"
     inkscape:window-y="19"
     inkscape:window-maximized="1"
     fit-margin-top="0"
     fit-margin-left="0"
     fit-margin-right="0"
     fit-margin-bottom="0" />
  <defs
     id="defs4">
    <linearGradient
       id="linearGradient3556">
      <stop
         style="stop-color:#fbf7f7;stop-opacity:0.00392157;"
         offset="0"
         id="stop3558" />
      <stop
         style="stop-color:#810202;stop-opacity:0.99622643;"
         offset="1"
         id="stop3560" />
    </linearGradient>
    <inkscape:perspective
       sodipodi:type="inkscape:persp3d"
       inkscape:vp_x="0 : 526.18109 : 1"
       inkscape:vp_y="0 : 1000 : 0"
       inkscape:vp_z="744.09448 : 526.18109 : 1"
       inkscape:persp3d-origin="372.04724 : 350.78739 : 1"
       id="perspective10" />
    <inkscape:perspective
       id="perspective2726"
       inkscape:persp3d-origin="372.04724 : 350.78739 : 1"
       inkscape:vp_z="744.09448 : 526.18109 : 1"
       inkscape:vp_y="0 : 1000 : 0"
       inkscape:vp_x="0 : 526.18109 : 1"
       sodipodi:type="inkscape:persp3d" />
    <radialGradient
       inkscape:collect="always"
       xlink:href="#linearGradient3556"
       id="radialGradient3562"
       cx="302.5098"
       cy="533.83978"
       fx="302.5098"
       fy="533.83978"
       r="9.2992697"
       gradientTransform="matrix(-2.2628854,0.3501556,-0.6125969,-3.9589176,1311.3363,2541.0432)"
       gradientUnits="userSpaceOnUse" />
    <radialGradient
       inkscape:collect="always"
       xlink:href="#linearGradient3556"
       id="radialGradient3614"
       gradientUnits="userSpaceOnUse"
       gradientTransform="matrix(-2.2628854,0.3501556,-0.6125969,-3.9589176,1311.3363,2541.0432)"
       cx="302.5098"
       cy="533.83978"
       fx="302.5098"
       fy="533.83978"
       r="9.2992697" />
    <radialGradient
       inkscape:collect="always"
       xlink:href="#linearGradient3556"
       id="radialGradient3632"
       gradientUnits="userSpaceOnUse"
       gradientTransform="matrix(-3.5610043,0.5510246,-0.9640171,-6.2299764,1832.4465,3679.9193)"
       cx="302.5098"
       cy="533.83978"
       fx="302.5098"
       fy="533.83978"
       r="9.2992697" />
    <linearGradient
       id="linearGradient3556-522">
      <stop
         style="stop-color:#fdfbfb;stop-opacity:0.00392157;"
         offset="0"
         id="stop5895" />
      <stop
         style="stop-color:#c08181;stop-opacity:0.99622643;"
         offset="1"
         id="stop5897" />
    </linearGradient>
    <radialGradient
       r="9.2992697"
       fy="533.83978"
       fx="302.5098"
       cy="533.83978"
       cx="302.5098"
       gradientTransform="matrix(3.5610043,0.5510246,0.9640171,-6.2299764,-1216.467,3679.9193)"
       gradientUnits="userSpaceOnUse"
       id="radialGradient2546"
       xlink:href="#linearGradient3556-522"
       inkscape:collect="always" />
    <radialGradient
       r="9.2992697"
       fy="533.83978"
       fx="302.5098"
       cy="533.83978"
       cx="302.5098"
       gradientTransform="matrix(3.5610043,0.5510246,0.9640171,-6.2299764,-1216.467,3679.9193)"
       gradientUnits="userSpaceOnUse"
       id="radialGradient2546-662"
       xlink:href="#linearGradient3556-522-325"
       inkscape:collect="always" />
    <linearGradient
       id="linearGradient3556-522-325">
      <stop
         style="stop-color:#fbfbfb;stop-opacity:0.00392157;"
         offset="0"
         id="stop4796" />
      <stop
         style="stop-color:#818181;stop-opacity:0.99622643;"
         offset="1"
         id="stop4798" />
    </linearGradient>
    <radialGradient
       inkscape:collect="always"
       xlink:href="#linearGradient3556-522-325"
       id="radialGradient3041"
       gradientUnits="userSpaceOnUse"
       gradientTransform="matrix(3.5610043,0.5510246,0.9640171,-6.2299764,-1216.467,3679.9193)"
       cx="302.5098"
       cy="533.83978"
       fx="302.5098"
       fy="533.83978"
       r="9.2992697" />
    <radialGradient
       inkscape:collect="always"
       xlink:href="#linearGradient3556-522-325"
       id="radialGradient3059"
       gradientUnits="userSpaceOnUse"
       gradientTransform="matrix(3.5585743,0.5510246,0.96335925,-6.2299764,-1215.495,3679.9193)"
       cx="302.5098"
       cy="533.83978"
       fx="302.5098"
       fy="533.83978"
       r="9.2992697" />
    <radialGradient
       inkscape:collect="always"
       xlink:href="#linearGradient3556-522-325"
       id="radialGradient3855"
       gradientUnits="userSpaceOnUse"
       gradientTransform="matrix(3.5585743,0.5510246,0.96335925,-6.2299764,-1215.495,3679.9193)"
       cx="302.5098"
       cy="533.83978"
       fx="302.5098"
       fy="533.83978"
       r="9.2992697" />
    <radialGradient
       inkscape:collect="always"
       xlink:href="#linearGradient3556-522-325"
       id="radialGradient3038"
       gradientUnits="userSpaceOnUse"
       gradientTransform="matrix(14.234297,2.2040984,3.853437,-24.919906,-5785.9492,13167.188)"
       cx="302.5098"
       cy="533.83978"
       fx="302.5098"
       fy="533.83978"
       r="9.2992697" />
  </defs>
  <metadata
     id="metadata7">
    <rdf:RDF>
      <cc:Work
         rdf:about="">
        <dc:format>image/svg+xml</dc:format>
        <dc:type
           rdf:resource="http://purl.org/dc/dcmitype/StillImage" />
      </cc:Work>
    </rdf:RDF>
  </metadata>
  <g
     inkscape:label="Layer 1"
     inkscape:groupmode="layer"
     id="layer1"
     transform="translate(92.010244,-364.47994)">
    <path
       inkscape:connector-curvature="0"
       sodipodi:nodetypes="cccccc"
       id="path2488"
       d="m 586.71417,394.68294 -73.07328,-16.69116 -0.7942,271.03244 106.1602,-7.53908 30.45492,-125.99008 -62.74764,-120.81212 z"
       style="fill:#ffffff;fill-opacity:1;fill-rule:evenodd;stroke:#7f7f7f;stroke-width:3.14623904;stroke-linecap:butt;stroke-linejoin:miter;stroke-miterlimit:4;stroke-opacity:1;stroke-dasharray:none" />
    <path
       transform="matrix(-6.2903304,0,0,6.294626,2666.124,-2822.9597)"
       d="m 347.74502,529.92389 a 5.5558391,21.402607 0 1 1 -11.11168,0 5.5558391,21.402607 0 1 1 11.11168,0 z"
       sodipodi:ry="21.402607"
       sodipodi:rx="5.5558391"
       sodipodi:cy="529.92389"
       sodipodi:cx="342.18918"
       id="path2490"
       style="fill:#808080;fill-opacity:1;stroke:none"
       sodipodi:type="arc" />
    <path
       inkscape:connector-curvature="0"
       sodipodi:nodetypes="cccc"
       id="path2492"
       d="m 558.51737,669.6895 c -12.98384,0 -15.4884,-11.39236 -16.2826,-20.66528 l 85.78164,-1.58964 -69.49904,22.25492 z"
       style="fill:#808080;fill-opacity:1;fill-rule:evenodd;stroke:none" />
    <path
       inkscape:connector-curvature="0"
       sodipodi:nodetypes="ccccccccccccc"
       id="path2494"
       d="m 536.52213,410.20046 c -115.5522,-10.2342 -292.68048,-45.72052 -351.71072,-45.72052 -93.11368,0 -180.748,24.81536 -263.699,58.0216 -12.45772,9.80272 -15.75748,21.19508 -11.11988,31.79264 7.14844,12.904 26.21104,19.5266 38.1252,15.89632 20.91588,-2.90648 123.64204,-31.94096 162.8262,-32.58748 33.73712,-0.1128 70.2808,-3.03436 96.10712,4.76888 -39.86004,18.01584 -118.68676,87.6948 -119.93532,106.50544 -0.7234,26.8294 44.67384,81.5304 99.28424,114.45364 37.09948,13.63624 90.69744,12.01088 110.40412,-42.12536 58.24676,-1.9994 116.49352,9.297 174.74028,-19.87036 26.63796,-21.68192 50.996,-15.45676 71.88188,-19.87044 10.82044,-70.92928 2.71172,-129.70528 -6.90412,-171.26436 z"
       style="fill:#cccccc;fill-opacity:1;fill-rule:evenodd;stroke:none" />
    <path
       inkscape:connector-curvature="0"
       sodipodi:nodetypes="cccccc"
       id="path2496"
       d="m 549.94489,645.28294 c 19.95504,-26.75 47.09476,-75.91496 47.09476,-111.50708 0,-31.53704 -4.49268,-73.38812 -11.1198,-117.63292 l 81.016,29.40824 -30.97672,192.61832 -86.01424,7.11344 z"
       style="fill:url(#radialGradient3038);fill-opacity:1;fill-rule:evenodd;stroke:none" />
    <path
       transform="matrix(-6.2903304,0,0,6.294626,2663.7411,-2816.6011)"
       d="m 331.58258,538.38391 a 4.2931485,7.7655478 0 1 1 -8.5863,0 4.2931485,7.7655478 0 1 1 8.5863,0 z"
       sodipodi:ry="7.7655478"
       sodipodi:rx="4.2931485"
       sodipodi:cy="538.38391"
       sodipodi:cx="327.28943"
       id="path2498"
       style="fill:#444444;fill-opacity:1;stroke:none"
       sodipodi:type="arc" />
    <path
       sodipodi:type="arc"
       style="fill:#999999;fill-opacity:1;stroke:none"
       id="path2500"
       sodipodi:cx="327.28943"
       sodipodi:cy="538.38391"
       sodipodi:rx="2.9998198"
       sodipodi:ry="6.7553954"
       d="m 330.28925,538.38391 a 2.9998198,6.7553954 0 1 1 -5.99964,0 2.9998198,6.7553954 0 1 1 5.99964,0 z"
       transform="matrix(-6.2903304,0,0,6.294626,2663.6847,-2814.0238)" />
    <path
       inkscape:connector-curvature="0"
       sodipodi:nodetypes="cccc"
       id="path2502"
       d="m 46.34497,542.40102 c 0,27.50448 23.12096,33.72116 92.1084,33.72116 l 7.86292,-62.94624 C 66.97405,495.95158 46.34497,523.87798 46.34497,542.40102 z"
       style="fill:#cccccc;fill-opacity:1;fill-rule:evenodd;stroke:none" />
    <path
       inkscape:connector-curvature="0"
       sodipodi:nodetypes="cc"
       id="path2504"
       d="m 316.23617,516.54802 c -21.7372,9.43872 -40.73876,7.96228 -59.53348,5.62024"
       style="fill:none;stroke:#bcbcbc;stroke-width:4.99829388000000030;stroke-linecap:round;stroke-linejoin:miter;stroke-miterlimit:4;stroke-opacity:1;stroke-dasharray:none" />
    <path
       inkscape:connector-curvature="0"
       sodipodi:nodetypes="cc"
       id="path2506"
       d="m 282.53797,465.96622 c -11.632,2.9726 -27.1498,2.05672 -41.56112,2.24808"
       style="fill:none;stroke:#bcbcbc;stroke-width:4.99829388000000030;stroke-linecap:round;stroke-linejoin:miter;stroke-miterlimit:4;stroke-opacity:1;stroke-dasharray:none" />
    <path
       inkscape:connector-curvature="0"
       sodipodi:nodetypes="cc"
       id="path2508"
       d="m 228.62085,504.18362 c -45.70012,18.91112 -97.282,64.66644 -96.60156,86.55104"
       style="fill:none;stroke:#bcbcbc;stroke-width:4.99829388000000030;stroke-linecap:round;stroke-linejoin:miter;stroke-miterlimit:4;stroke-opacity:1;stroke-dasharray:none" />
    <path
       inkscape:connector-curvature="0"
       sodipodi:nodetypes="cc"
       id="path2510"
       d="m 247.71649,551.3933 c -35.67172,25.41364 -91.27888,65.31184 -57.28692,91.04724"
       style="fill:none;stroke:#bcbcbc;stroke-width:4.99829388000000030;stroke-linecap:round;stroke-linejoin:miter;stroke-miterlimit:4;stroke-opacity:1;stroke-dasharray:none" />
    <path
       inkscape:connector-curvature="0"
       id="path2512"
       d="m 317.35945,579.4943 -31.45168,1.124"
       style="fill:none;stroke:#bcbcbc;stroke-width:4.99829388000000030;stroke-linecap:round;stroke-linejoin:miter;stroke-miterlimit:4;stroke-opacity:1;stroke-dasharray:none" />
    <path
       inkscape:connector-curvature="0"
       id="path2514"
       d="m 156.73137,397.39974 -2.24656,28.10104"
       style="fill:none;stroke:#bcbcbc;stroke-width:4.99829388000000030;stroke-linecap:round;stroke-linejoin:miter;stroke-miterlimit:4;stroke-opacity:1;stroke-dasharray:none" />
    <path
       inkscape:connector-curvature="0"
       id="path2516"
       d="m 30.92477,417.6325 0,16.8606"
       style="fill:none;stroke:#bcbcbc;stroke-width:4.99829388000000030;stroke-linecap:round;stroke-linejoin:miter;stroke-miterlimit:4;stroke-opacity:1;stroke-dasharray:none" />
    <path
       inkscape:connector-curvature="0"
       style="fill:#c8c8c8;fill-opacity:1;fill-rule:evenodd;stroke:none"
       d="m 613.84717,377.19702 c -21.52812,-16.67104 -44.56732,16.27868 -37.33084,27.02372 33.29684,49.44076 47.34324,81.43212 41.37588,135.2404 -5.96736,53.80832 -31.94848,129.43352 -59.64424,129.43352 l 111.99268,0.79484 c 15.01108,0 -45.15548,-283.89628 -56.39348,-292.49248 z"
       id="path2518"
       sodipodi:nodetypes="cssccc" />
    <path
       inkscape:connector-curvature="0"
       sodipodi:nodetypes="cccsccccccccc"
       id="path2520"
       d="m 680.94233,380.73342 c -24.15984,-0.86168 -43.27648,5.0598 -54.51448,-3.5364 -21.52816,-16.67104 -65.90252,-15.02324 -64.3362,9.53776 51.62032,42.5328 69.60944,86.14508 67.98248,135.27056 -1.62692,49.12548 -30.5784,151.86432 -52.097,146.09448 l 114.83732,2.30396 c -14.2546,-6.78572 -17.49152,-12.33868 -17.49152,-21.89776 0,-20.13544 32.6668,-34.18812 32.6668,-48.04612 0,-16.22384 -23.52488,-29.58632 -22.37272,-51.3514 -0.198,-10.1618 19.48256,-24.0432 19.48256,-39.6148 -0.1784,-16.89004 -27.6178,-65.5172 -28.51004,-90.8052 0,-10.33956 10.82948,-9.38576 11.00792,-23.84448 0,-7.67436 -2.2684,-10.62824 -6.65512,-14.1106 z"
       style="fill:#808080;fill-opacity:1;fill-rule:evenodd;stroke:none" />
    <path
       inkscape:connector-curvature="0"
       sodipodi:nodetypes="cc"
       id="path2522"
       d="M 113.46365,510.92786 C 99.26273,525.1657 84.03061,539.40358 87.06669,553.64138"
       style="fill:none;stroke:#bcbcbc;stroke-width:4.99829388000000030;stroke-linecap:round;stroke-linejoin:miter;stroke-miterlimit:4;stroke-opacity:1;stroke-dasharray:none" />
    <path
       inkscape:connector-curvature="0"
       sodipodi:nodetypes="cc"
       id="path2524"
       d="m 210.62673,635.6963 c 13.95008,6.06952 28.04392,11.13136 44.93096,-3.37208"
       style="fill:none;stroke:#bcbcbc;stroke-width:4.99829388000000030;stroke-linecap:round;stroke-linejoin:miter;stroke-miterlimit:4;stroke-opacity:1;stroke-dasharray:none" />
    <path
       inkscape:connector-curvature="0"
       style="fill:none;stroke:#bcbcbc;stroke-width:4.99829388000000030;stroke-linecap:round;stroke-linejoin:miter;stroke-miterlimit:4;stroke-opacity:1;stroke-dasharray:none"
       d="m 222.17313,434.96834 c -10.83772,-1.00148 -10.47004,2.85156 -17.73292,5.42736"
       id="path2526"
       sodipodi:nodetypes="cc" />
  </g>
</svg>
